<?xml version="1.0" standalone="no"?>
<!DOCTYPE svg PUBLIC "-//W3C//DTD SVG 20010904//EN"
 "http://www.w3.org/TR/2001/REC-SVG-20010904/DTD/svg10.dtd">
<svg version="1.0" xmlns="http://www.w3.org/2000/svg"
 width="512.000000pt" height="512.000000pt" viewBox="0 0 512.000000 512.000000"
 preserveAspectRatio="xMidYMid meet">

<g transform="translate(0.000000,512.000000) scale(0.100000,-0.100000)"
fill="#000000" stroke="none">
<path d="M2105 5000 c-53 -26 -76 -67 -83 -146 l-5 -64 -91 0 c-50 0 -109 -5
-131 -11 -98 -26 -163 -105 -172 -209 l-6 -60 -341 0 c-211 0 -356 -4 -380
-11 -21 -6 -58 -29 -82 -51 -80 -74 -74 102 -74 -2140 0 -1498 3 -2011 12
-2046 16 -64 86 -134 150 -150 67 -17 3249 -17 3316 0 64 16 134 86 150 150 9
35 12 548 12 2046 0 2242 6 2066 -74 2140 -24 22 -61 45 -82 51 -24 7 -169 11
-380 11 l-341 0 -6 58 c-6 70 -24 109 -74 157 -48 46 -113 65 -228 65 l-92 0
-5 64 c-7 79 -30 120 -83 146 -39 19 -63 20 -456 20 -394 0 -416 -1 -454 -20z
m835 -265 l0 -125 -380 0 -380 0 0 125 0 125 380 0 380 0 0 -125z m-918 -171
c4 -58 8 -70 32 -90 l27 -24 479 0 479 0 27 24 c24 20 28 32 32 90 l4 66 98 0
c149 0 144 8 148 -229 l3 -191 -791 0 -791 0 3 191 c4 237 -1 229 148 229 l98
0 4 -66z m-402 -328 c0 -118 1 -127 24 -153 l24 -28 892 0 892 0 24 28 c23 26
24 35 24 153 l0 124 324 0 c318 0 370 -4 388 -33 4 -7 8 -917 8 -2024 0 -1815
-2 -2013 -16 -2027 -14 -14 -177 -16 -1644 -16 -1467 0 -1630 2 -1644 16 -14
14 -16 212 -16 2028 0 1594 3 2016 13 2028 6 9 21 18 32 21 11 3 167 5 348 6
l327 1 0 -124z"/>
<path d="M2392 3845 c-282 -65 -508 -282 -584 -564 -29 -107 -29 -286 0 -394
58 -215 213 -403 407 -497 134 -65 181 -75 345 -75 164 0 211 10 345 75 146
71 265 188 345 342 61 117 83 209 83 353 0 187 -53 342 -168 487 -91 116 -254
223 -400 264 -82 23 -291 28 -373 9z m293 -150 c230 -48 424 -235 481 -465 34
-134 5 -346 -61 -446 l-17 -27 -26 34 c-42 56 -113 118 -179 157 l-61 38 29
38 c70 94 90 239 48 351 -29 78 -111 164 -191 201 -53 24 -76 28 -148 29 -77
0 -92 -3 -152 -33 -83 -41 -158 -120 -187 -197 -43 -114 -21 -261 53 -357 l27
-36 -45 -22 c-58 -30 -135 -93 -182 -152 -44 -54 -51 -52 -83 21 -52 122 -67
285 -36 406 43 171 169 326 325 404 138 68 265 85 405 56z m-24 -268 c24 -13
58 -43 74 -66 27 -38 30 -51 30 -116 0 -65 -3 -78 -30 -117 -86 -122 -263
-123 -348 -1 -51 72 -47 174 9 249 54 73 178 96 265 51z m22 -562 c32 -8 81
-27 109 -41 58 -30 147 -114 173 -164 l18 -34 -34 -29 c-88 -74 -267 -137
-389 -137 -122 0 -301 63 -389 137 l-34 29 18 34 c25 48 111 130 171 162 105
56 243 73 357 43z"/>
<path d="M1624 2145 c-16 -7 -74 -58 -128 -113 l-100 -101 -38 34 c-50 46 -82
53 -116 28 -20 -15 -28 -30 -30 -59 -3 -37 2 -43 72 -113 113 -112 110 -113
297 75 160 161 169 176 129 226 -25 32 -50 39 -86 23z"/>
<path d="M1925 1935 c-30 -30 -32 -64 -4 -99 l20 -26 965 0 c951 0 964 0 984
20 28 28 26 81 -3 108 l-23 22 -958 0 -957 0 -24 -25z"/>
<path d="M1625 1520 c-11 -4 -67 -56 -124 -114 l-105 -105 -43 39 c-48 45 -78
50 -117 19 -19 -15 -26 -30 -26 -56 0 -30 10 -45 66 -103 75 -78 106 -94 150
-75 42 19 291 274 299 308 9 35 -8 71 -42 86 -28 13 -31 13 -58 1z"/>
<path d="M1921 1304 c-28 -35 -26 -69 4 -99 l24 -25 959 0 959 0 21 23 c28 30
29 80 2 107 -20 20 -33 20 -984 20 l-965 0 -20 -26z"/>
<path d="M1511 786 l-116 -115 -42 40 c-69 64 -143 45 -143 -38 0 -32 9 -45
73 -110 110 -109 106 -110 295 80 166 167 175 185 127 232 -45 46 -67 36 -194
-89z"/>
<path d="M1921 674 c-26 -33 -27 -65 -2 -95 l19 -24 960 -3 959 -2 26 21 c21
16 27 29 27 58 0 77 78 71 -1003 71 l-966 0 -20 -26z"/>
</g>
</svg>
