<svg width="64" height="36" viewBox="0 0 64 36" fill="none" xmlns="http://www.w3.org/2000/svg">
<path d="M34.3692 27.0479C33.5795 28.3079 32.6524 29.4629 31.5881 30.4779C29.3906 32.5429 26.6439 34.0129 23.6224 34.6079C22.661 34.8179 21.6653 34.9229 20.6353 34.9229H1.06445V1.07788H5.04729V30.8629H13.013H20.4979C20.5666 30.8629 20.6009 30.8629 20.6696 30.8629C24.2748 30.8279 27.5366 29.1829 29.8027 26.6279C30.8327 25.4379 31.6911 24.0379 32.2404 22.4979L34.3692 27.0479Z" fill="white"/>
<path d="M62.936 1.07785L60.8073 5.52285L46.5583 34.9228H42.6098L42.3695 34.3978L36.3952 22.1128L35.8802 21.0278L31.5197 12.1028C30.7643 10.5628 29.7 9.23285 28.4296 8.14785C27.9145 7.72785 27.3995 7.34285 26.8502 6.99285C25.9575 6.46785 25.0304 6.01285 24.0004 5.69785C22.8673 5.34785 21.6656 5.17285 20.4296 5.17285H12.9789V26.8728H8.99609V1.07785H20.4296C22.421 1.07785 24.3781 1.46285 26.1291 2.12785C26.9188 2.44285 27.7085 2.79285 28.4296 3.21285C29.1163 3.59785 29.7343 4.01785 30.3523 4.50785C32.2751 6.01285 33.8545 7.90285 34.9875 10.1078L35.2965 10.7728L44.5326 29.8478L56.5154 5.13785H52.0862L44.5669 20.6778L42.3695 16.0928L44.5669 11.5078L47.657 5.10285L49.6141 1.04285H62.936V1.07785Z" fill="white"/>
</svg>
